<svg width="426" height="213" viewBox="0 0 426 213" fill="none" xmlns="http://www.w3.org/2000/svg">
<rect width="426" height="213" fill="white"/>
<path d="M221.116 34.7467C221.016 28.9293 228.853 26.9834 231.486 32.1718V32.1718C232.951 35.0588 236.585 36.0542 239.317 34.3165L248.562 28.4356C254.128 24.8944 261.055 30.3155 258.955 36.5699L255.829 45.8796C254.359 50.2577 257.664 54.7723 262.282 54.6931V54.6931C269.407 54.5709 271.754 64.1924 265.374 67.3653V67.3653C261.238 69.4216 260.384 74.9513 263.705 78.1604V78.1604C268.829 83.112 263.685 91.5753 256.93 89.3071V89.3071C252.552 87.8371 248.038 91.1427 248.117 95.7603V95.7603C248.239 102.885 238.617 105.232 235.445 98.852V98.852C233.388 94.7168 227.859 93.8618 224.649 97.1829V97.1829C219.698 102.307 211.235 97.1638 213.503 90.4086L214.174 88.4093C215.317 85.0064 212.747 81.4973 209.158 81.5589L203.373 81.6581C198.562 81.7406 197.342 75.0215 201.875 73.4075V73.4075C204.48 72.48 205.519 69.3507 203.986 67.0494L195.686 54.5896C191.987 49.0372 197.415 41.9491 203.74 44.0727L212.273 46.9379C216.714 48.429 221.293 45.0762 221.212 40.3925L221.116 34.7467Z" fill="#3EEAF6"/>
<path d="M285.884 81.169H293.823V89.108H285.884V81.169ZM277.945 81.169H285.884V89.108H277.945V81.169ZM277.945 73.23H285.884V81.169H277.945V73.23ZM285.884 73.23H293.823V81.169H285.884V73.23ZM277.945 65.291H285.884V73.23H277.945V65.291ZM270.006 65.291H277.945V73.23H270.006V65.291ZM270.006 73.23H277.945V81.169H270.006V73.23ZM262.067 73.23H270.006V81.169H262.067V73.23ZM254.128 73.23H262.067V81.169H254.128V73.23ZM254.128 65.291H262.067V73.23H254.128V65.291ZM246.189 65.291H254.128V73.23H246.189V65.291ZM262.067 65.291H270.006V73.23H262.067V65.291ZM246.189 73.23H254.128V81.169H246.189V73.23ZM238.25 73.23H246.189V81.169H238.25V73.23ZM238.25 81.169H246.189V89.108H238.25V81.169ZM246.189 81.169H254.128V89.108H246.189V81.169ZM246.189 89.108H254.128V97.047H246.189V89.108ZM246.189 97.047H254.128V104.986H246.189V97.047ZM238.25 97.047H246.189V104.986H238.25V97.047ZM238.25 89.108H246.189V97.047H238.25V89.108ZM246.189 104.986H254.128V112.925H246.189V104.986ZM254.128 104.986H262.067V112.925H254.128V104.986ZM254.128 97.047H262.067V104.986H254.128V97.047ZM262.067 97.047H270.006V104.986H262.067V97.047ZM270.006 97.047H277.945V104.986H270.006V97.047ZM277.945 97.047H285.884V104.986H277.945V97.047ZM277.945 104.986H285.884V112.925H277.945V104.986ZM270.006 104.986H277.945V112.925H270.006V104.986ZM262.067 104.986H270.006V112.925H262.067V104.986ZM285.884 104.986H293.823V112.925H285.884V104.986ZM285.884 112.925H293.823V120.864H285.884V112.925ZM277.945 112.925H285.884V120.864H277.945V112.925ZM270.006 128.803H277.945V136.742H270.006V128.803ZM277.945 128.803H285.884V136.742H277.945V128.803ZM277.945 120.864H285.884V128.803H277.945V120.864ZM285.884 120.864H293.823V128.803H285.884V120.864ZM285.884 128.803H293.823V136.742H285.884V128.803ZM277.945 136.742H285.884V144.681H277.945V136.742ZM270.006 136.742H277.945V144.681H270.006V136.742ZM262.067 136.742H270.006V144.681H262.067V136.742ZM254.128 136.742H262.067V144.681H254.128V136.742ZM246.189 136.742H254.128V144.681H246.189V136.742ZM246.189 128.803H254.128V136.742H246.189V128.803ZM254.128 128.803H262.067V136.742H254.128V128.803ZM262.067 128.803H270.006V136.742H262.067V128.803ZM238.25 128.803H246.189V136.742H238.25V128.803ZM238.25 120.864H246.189V128.803H238.25V120.864ZM246.189 120.864H254.128V128.803H246.189V120.864Z" fill="black"/>
<path d="M135.477 145.078V65.291H171.381C188.136 65.291 201.244 76.8032 201.244 91.5068C201.244 101.537 195.203 110.086 185.97 114.417L201.472 145.078H183.691L171.153 117.609H152.346V145.078H135.477ZM152.346 102.791H171.381C178.676 102.791 184.489 97.8898 184.489 91.5068C184.489 85.1238 178.676 80.1086 171.381 80.1086H152.346V102.791Z" fill="black"/>
<path d="M102.973 145.078V65.291H119.842V145.078H102.973Z" fill="black"/>
<path d="M12 65.291H29.0973L52.6915 123.194L76.2857 65.291H93.3829L60.3282 145.078H45.0547L12 65.291Z" fill="black"/>
<path d="M397.457 145.078V65.291H414.326V145.078H397.457Z" fill="black"/>
<path d="M308.293 145.078V65.291H325.162V97.0919H364.828V65.291H381.697V145.078H364.828V112.024H325.162V145.078H308.293Z" fill="black"/>
<path d="M286.267 80.9454H294.206V88.8844H286.267V80.9454ZM278.328 80.9454H286.267V88.8844H278.328V80.9454ZM278.328 73.0064H286.267V80.9454H278.328V73.0064ZM286.267 73.0064H294.206V80.9454H286.267V73.0064ZM278.328 65.0674H286.267V73.0064H278.328V65.0674ZM270.389 65.0674H278.328V73.0064H270.389V65.0674ZM270.389 73.0064H278.328V80.9454H270.389V73.0064ZM262.45 73.0064H270.389V80.9454H262.45V73.0064ZM254.511 73.0064H262.45V80.9454H254.511V73.0064ZM254.511 65.0674H262.45V73.0064H254.511V65.0674ZM246.572 65.0674H254.511V73.0064H246.572V65.0674ZM262.45 65.0674H270.389V73.0064H262.45V65.0674ZM246.572 73.0064H254.511V80.9454H246.572V73.0064ZM238.633 73.0064H246.572V80.9454H238.633V73.0064ZM238.633 80.9454H246.572V88.8844H238.633V80.9454ZM246.572 80.9454H254.511V88.8844H246.572V80.9454ZM246.572 88.8844H254.511V96.8234H246.572V88.8844ZM246.572 96.8234H254.511V104.762H246.572V96.8234ZM238.633 96.8234H246.572V104.762H238.633V96.8234ZM238.633 88.8844H246.572V96.8234H238.633V88.8844ZM246.572 104.762H254.511V112.701H246.572V104.762ZM254.511 104.762H262.45V112.701H254.511V104.762ZM254.511 96.8234H262.45V104.762H254.511V96.8234ZM262.45 96.8234H270.389V104.762H262.45V96.8234ZM270.389 96.8234H278.328V104.762H270.389V96.8234ZM278.328 96.8234H286.267V104.762H278.328V96.8234ZM278.328 104.762H286.267V112.701H278.328V104.762ZM270.389 104.762H278.328V112.701H270.389V104.762ZM262.45 104.762H270.389V112.701H262.45V104.762ZM286.267 104.762H294.206V112.701H286.267V104.762ZM286.267 112.701H294.206V120.64H286.267V112.701ZM278.328 112.701H286.267V120.64H278.328V112.701ZM270.389 128.579H278.328V136.518H270.389V128.579ZM278.328 128.579H286.267V136.518H278.328V128.579ZM278.328 120.64H286.267V128.579H278.328V120.64ZM286.267 120.64H294.206V128.579H286.267V120.64ZM286.267 128.579H294.206V136.518H286.267V128.579ZM278.328 136.518H286.267V144.457H278.328V136.518ZM270.389 136.518H278.328V144.457H270.389V136.518ZM262.45 136.518H270.389V144.457H262.45V136.518ZM254.511 136.518H262.45V144.457H254.511V136.518ZM246.572 136.518H254.511V144.457H246.572V136.518ZM246.572 128.579H254.511V136.518H246.572V128.579ZM254.511 128.579H262.45V136.518H254.511V128.579ZM262.45 128.579H270.389V136.518H262.45V128.579ZM238.633 128.579H246.572V136.518H238.633V128.579ZM238.633 120.64H246.572V128.579H238.633V120.64ZM246.572 120.64H254.511V128.579H246.572V120.64Z" fill="black"/>
<path d="M397.84 144.855V65.0674H414.709V144.855H397.84Z" fill="black"/>
<path d="M308.676 144.855V65.0674H325.545V96.8683H365.211V65.0674H382.08V144.855H365.211V111.8H325.545V144.855H308.676Z" fill="black"/>
<path d="M412.703 165.507L403.762 181.261V191.502H398.445V181.301L389.465 165.507H395.373L401.123 175.826L406.834 165.507H412.703Z" fill="black"/>
<path d="M363.316 191.502V165.507H368.634V175.472H380.134V165.507H385.451V191.502H380.134V180.277H368.634V191.502H363.316Z" fill="black"/>
<path d="M339.539 191.502V165.507H349.307C354.781 165.507 358.681 168.815 358.681 173.896C358.681 178.898 354.781 182.325 349.307 182.325H344.856V191.502H339.539ZM344.856 177.677H349.307C351.788 177.677 353.245 176.141 353.245 173.896C353.245 171.73 351.788 170.194 349.307 170.194H344.856V177.677Z" fill="black"/>
<path d="M320.777 191.974C313.136 191.974 306.992 186.145 306.992 178.504C306.992 170.863 313.136 165.034 320.777 165.034C328.418 165.034 334.641 170.863 334.641 178.504C334.641 186.145 328.418 191.974 320.777 191.974ZM320.817 187.051C325.582 187.051 329.167 183.546 329.167 178.504C329.167 173.502 325.582 169.957 320.817 169.957C315.972 169.957 312.467 173.502 312.467 178.504C312.467 183.546 315.972 187.051 320.817 187.051Z" fill="black"/>
<path d="M294.329 191.974C289.839 191.974 286.215 189.69 284.285 186.224L287.948 183.467C289.366 185.436 291.217 187.248 294.329 187.248C296.613 187.248 298.031 186.185 298.031 184.373C298.031 182.679 296.771 182.088 294.722 181.143L291.926 179.883C288.342 178.268 285.624 176.141 285.624 172.399C285.624 167.909 289.366 165.034 294.25 165.034C298.385 165.034 301.3 167.122 302.836 169.957L299.212 172.754C297.952 170.863 296.377 169.761 294.25 169.761C292.517 169.761 291.02 170.548 291.02 172.281C291.02 173.778 292.162 174.408 294.053 175.275L297.007 176.574C301.103 178.386 303.427 180.474 303.427 184.176C303.427 189.02 299.488 191.974 294.329 191.974Z" fill="black"/>
<path d="M267.332 191.974C259.691 191.974 253.547 186.145 253.547 178.504C253.547 170.863 259.691 165.034 267.332 165.034C274.973 165.034 281.196 170.863 281.196 178.504C281.196 186.145 274.973 191.974 267.332 191.974ZM267.371 187.051C272.137 187.051 275.721 183.546 275.721 178.504C275.721 173.502 272.137 169.957 267.371 169.957C262.527 169.957 259.022 173.502 259.022 178.504C259.022 183.546 262.527 187.051 267.371 187.051Z" fill="black"/>
<path d="M234.574 191.502V165.507H239.891V186.697H251.274V191.502H234.574Z" fill="black"/>
<path d="M222.91 191.502V165.507H228.227V191.502H222.91Z" fill="black"/>
<path d="M194.441 191.502V165.507H199.759V175.472H211.259V165.507H216.576V191.502H211.259V180.277H199.759V191.502H194.441Z" fill="black"/>
<path d="M170.66 191.502V165.507H180.428C185.903 165.507 189.802 168.815 189.802 173.896C189.802 178.898 185.903 182.325 180.428 182.325H175.977V191.502H170.66ZM175.977 177.677H180.428C182.909 177.677 184.367 176.141 184.367 173.896C184.367 171.73 182.909 170.194 180.428 170.194H175.977V177.677Z" fill="black"/>
<path d="M136.25 191.502V165.507H153.737V170.312H141.567V175.59H150.508V180.119H141.567V186.697H154.21V191.502H136.25Z" fill="black"/>
<path d="M124.603 165.507H129.92V191.974H128.148L113.102 175.905V191.502H107.785V165.034H109.518L124.603 181.025V165.507Z" fill="black"/>
<path d="M89.0234 191.974C81.3825 191.974 75.2383 186.145 75.2383 178.504C75.2383 170.863 81.3825 165.034 89.0234 165.034C96.6643 165.034 102.887 170.863 102.887 178.504C102.887 186.145 96.6643 191.974 89.0234 191.974ZM89.0628 187.051C93.8285 187.051 97.4126 183.546 97.4126 178.504C97.4126 173.502 93.8285 169.957 89.0628 169.957C84.2183 169.957 80.7129 173.502 80.7129 178.504C80.7129 183.546 84.2183 187.051 89.0628 187.051Z" fill="black"/>
<path d="M58.8544 172.649L53.0551 182.869V189.511H49.6061V182.894L43.7812 172.649H47.6134L51.3434 179.343L55.0478 172.649H58.8544Z" fill="black"/>
<path d="M38.9174 180.39C40.7568 181.055 41.9064 182.485 41.9064 184.555C41.9064 187.467 39.6327 189.511 36.3626 189.511H28.8516V172.649H34.8297C37.9466 172.649 40.1692 174.565 40.1692 177.35C40.1692 178.602 39.7093 179.624 38.9174 180.39ZM34.5487 175.613H32.1728V179.471H34.5487C35.9794 179.471 36.7458 178.679 36.7458 177.529C36.7458 176.354 35.9794 175.613 34.5487 175.613ZM36.1071 186.547C37.6144 186.547 38.5086 185.755 38.5086 184.427C38.5086 183.124 37.6144 182.306 36.1071 182.306H32.1728V186.547H36.1071Z" fill="black"/>
</svg>
